<svg width="90" height="90" viewBox="0 0 90 90" fill="none" xmlns="http://www.w3.org/2000/svg">
<path d="M83.8075 48.556C80.9738 49.2037 78.383 49.5174 75.9035 49.5174C56.371 49.5174 40.4818 33.6283 40.4818 14.0958C40.4818 11.6264 40.7956 9.04569 41.4534 6.20184C41.8481 4.5016 41.332 2.7204 40.0973 1.49583C38.8626 0.251008 37.0712 -0.275259 35.3913 0.13968C14.5532 4.8963 0 23.1232 0 44.4572C0 69.566 20.4332 89.9993 45.5421 89.9993C66.876 89.9993 85.103 75.446 89.8697 54.608C90.2644 52.9179 89.7482 51.1367 88.5136 49.902C87.2789 48.6673 85.4774 48.1309 83.8075 48.556ZM45.5421 79.8788C26.0096 79.8788 10.1205 63.9897 10.1205 44.4572C10.1205 30.4808 18.1561 18.2148 30.3917 12.4866C30.3715 13.0332 30.3614 13.5594 30.3614 14.0958C30.3614 39.741 51.4929 60.7916 77.5126 59.6075C71.7844 71.8431 59.5184 79.8788 45.5421 79.8788Z" fill="white"/>
</svg>
