<svg width="90" height="90" viewBox="0 0 90 90" fill="none" xmlns="http://www.w3.org/2000/svg">
<path d="M45 24C33.401 24 24 33.401 24 45C24 56.599 33.4 66 45 66C56.597 66 66 56.599 66 45C66 33.402 56.597 24 45 24ZM45 60C36.729 60 30 53.271 30 45C30 36.729 36.729 30 45 30C53.271 30 60 36.729 60 45C60 53.271 53.271 60 45 60Z" fill="#FFBB52"/>
<path d="M45 18C46.657 18 48 16.657 48 15V3C48 1.343 46.657 0 45 0C43.343 0 42 1.343 42 3V15C42 16.657 43.343 18 45 18Z" fill="#FFBB52"/>
<path d="M66.751 26.2491C67.519 26.2491 68.286 25.9561 68.872 25.3711L76.819 17.4241C77.991 16.2521 77.991 14.3531 76.819 13.1811C75.647 12.0091 73.749 12.0101 72.577 13.1811L64.63 21.1281C63.458 22.3001 63.458 24.1991 64.63 25.3711C65.216 25.9561 65.983 26.2491 66.751 26.2491Z" fill="#FFBB52"/>
<path d="M87 42H75C73.343 42 72 43.343 72 45C72 46.657 73.343 48 75 48H87C88.657 48 90 46.657 90 45C90 43.343 88.657 42 87 42Z" fill="#FFBB52"/>
<path d="M68.872 64.63C67.7 63.458 65.802 63.458 64.63 64.63C63.458 65.801 63.458 67.701 64.63 68.872L72.577 76.819C73.163 77.405 73.931 77.698 74.698 77.698C75.465 77.698 76.233 77.405 76.819 76.819C77.991 75.648 77.991 73.748 76.819 72.577L68.872 64.63Z" fill="#FFBB52"/>
<path d="M45 72C43.343 72 42 73.343 42 75V87C42 88.657 43.343 90 45 90C46.657 90 48 88.657 48 87V75C48 73.343 46.657 72 45 72Z" fill="#FFBB52"/>
<path d="M21.128 64.63L13.18 72.577C12.008 73.748 12.008 75.647 13.18 76.819C13.766 77.405 14.534 77.698 15.302 77.698C16.07 77.698 16.838 77.405 17.423 76.819L25.371 68.872C26.543 67.701 26.543 65.802 25.371 64.63C24.199 63.458 22.299 63.458 21.128 64.63Z" fill="#FFBB52"/>
<path d="M18 45C18 43.343 16.657 42 15 42H3C1.343 42 0 43.343 0 45C0 46.657 1.343 48 3 48H15C16.657 48 18 46.657 18 45Z" fill="#FFBB52"/>
<path d="M21.128 25.37C21.714 25.955 22.482 26.248 23.249 26.248C24.016 26.248 24.785 25.955 25.371 25.369C26.542 24.198 26.542 22.298 25.371 21.126L17.423 13.179C16.251 12.008 14.352 12.008 13.18 13.179C12.009 14.35 12.009 16.25 13.18 17.422L21.128 25.37Z" fill="#FFBB52"/>
</svg>
